<svg display="none"><symbol id="rdLogo" xmlns="http://www.w3.org/2000/svg" viewBox="0 0 3557.97 3868.84">
<g id="a"/><g id="b"><g id="c"><g>
<path d="M1958.17,245.71c-61.73-19.08-123.57-37.84-185.22-57.18-8.67-2.72-19.38-2.2-24.82-11.97,4.14-8.92,13.4-11.37,20.79-15.91,85.57-52.58,143.94-96.17,229.68-148.47,25.45-15.52,26.13-15.27,53.44-4.56,140.8,48.75,265.17,95.83,396.8,147.42,0,0,185.73,72.99,278.67,109.33,0,0,130.67,50.67,198.36,85.41,36.46,14.38,69.76,34.89,102.89,55.5,45.17,28.1,88.2,59.35,127.59,95.05,32.67,29.6,63.91,60.8,92.75,94.36,35.97,41.87,67.53,86.86,96.28,133.8,32.8,53.56,59.64,110.17,83.61,168.2,33.56,81.27,57.69,165.41,77.66,250.86,17.93,76.74,30.14,154.47,38.21,232.78,4.98,48.3,9.59,96.67,9.66,145.42,.04,28.7,4.11,57.36,3.38,86.21-.45,17.91-.22,35.81-2.7,53.62-.7,5.05-1.04,10.21-.94,15.31,1.18,59.71-6.86,118.72-13.86,177.76-19.47,164.16-61.87,322.6-119.81,477.16-27.43,73.16-58.88,144.55-93.86,214.34-22.63,45.16-46.09,89.95-70.7,134.05-42.51,76.17-93.47,146.56-148.75,214.01-30.09,36.72-64.37,69.35-96.25,104.26-55.7,60.99-115.61,117.73-173.59,176.41-18.85,19.08-39.63,36.23-59.29,54.51-60.24,56.04-128.9,100.82-196.71,146.65-87.45,59.11-175.62,117.15-263.36,175.84-118.57,79.32-237.04,158.78-355.49,238.28-29.74,19.96-59.24,40.27-88.86,60.41-3.7,2.52-7.65,4.71-11.17,7.46-11.58,9.06-23.19,8.56-35.67,1.56-17.85-10.01-35.93-19.61-54.14-28.95-62.61-32.1-125.19-64.25-188.07-95.82-14.09-7.07-22.88-17.25-28.64-31.7-16.35-40.99-33.58-81.63-50.3-122.48-59.61-145.63-119.11-291.3-178.74-436.93-39.99-97.67-80.13-195.29-120.19-292.93-62.4-152.09-124.71-304.22-187.2-456.27-33.32-81.08-68.56-161.3-109.17-239.06-30.53-58.45-62.98-115.75-102.29-168.88-28.27-38.21-60.08-73.07-97.42-102.72-12.59-10-26.59-17.73-40.16-26.17-3.65-2.27-9.67-3.71-8.97-8.81,.88-6.42,7.8-5.26,12.44-6.55,3.68-1.02,7.54-1.43,11.3-2.16,103.92-20.11,196.55-63.49,277.22-132.55,62.08-53.15,110.62-116.95,150.15-187.8,27.16-48.68,49.41-99.8,66.9-152.74,21.1-63.86,37.3-128.99,47.65-195.55,7.48-48.09,11.76-96.48,15.55-144.94,.75-9.55,.6-19.18,.61-28.77,.02-16,.75-31.93,2.46-47.87,2.2-20.39,1.8-40.86-.3-61.3-.98-9.53-1.98-19.13-1.92-28.69,.31-50.6-4.25-100.92-8.73-151.23-4.6-51.64-11.96-102.89-21.15-153.93-16.17-89.69-39.37-177.37-75.07-261.37-33.2-78.11-74.81-151.26-130.27-216.08-12.92-15.1-26.39-29.57-40.42-43.59-4.06-4.06-7.92-8.34-11.69-12.67-.7-.8-1.07-2.62-.63-3.48,.38-.75,2.37-1.41,3.22-1.06,4.11,1.71,8.23,3.5,12.06,5.75,47.44,27.86,94.89,55.69,142.2,83.77,32.6,19.35,61.5,43.22,89.06,69.37,82.72,78.5,137.08,174.36,175.67,280.29,31.48,86.44,49.66,175.92,60.77,266.99,4.11,33.65,6.03,67.49,8.87,101.25,3.33,39.65,2.51,79.24,3.04,112.4,0,21.81,.22,37.17-.03,52.52-1.79,107.98-16.21,214.02-46.72,317.89-19.05,64.84-45.52,126.39-77.97,185.34-22.23,40.39-49.55,77.37-79.78,112.45-26.1,30.28-55.12,57.02-86.49,81.3-45.82,35.46-96.12,63.13-150.59,83.15-37.93,13.94-76.61,24.92-116.5,31.68-6.47,1.1-16.36-.07-17.3,8.61-.75,7,8.35,8.68,13.74,11.62,45.06,24.56,82.24,58.35,114.85,97.52,46.5,55.86,83.4,117.93,117.01,182.07,34.17,65.2,63.9,132.47,93.27,199.93,25.79,59.22,53.08,117.79,79.66,176.66,20.53,45.47,40.94,90.99,61.5,136.44,21.61,47.79,43.39,95.5,64.98,143.29,27.65,61.2,55.13,122.48,82.81,183.66,27.43,60.6,55.08,121.09,82.53,181.68,20.58,45.44,40.95,90.98,61.49,136.45,21.33,47.21,42.78,94.37,64.14,141.57,13.97,30.88,27.9,61.79,41.79,92.71,9.79,21.8,13.44,23.08,34.42,11.06,60.49-34.67,120.89-69.5,181.4-104.13,102.15-58.45,204.38-116.78,306.56-175.2,43.32-24.76,86.53-49.71,129.88-74.4,63.64-36.25,121.03-81.2,177.62-127.27,46.64-37.97,90.35-79.25,135.23-119.22,37.74-33.61,75.04-67.59,110.73-103.4,36.21-36.33,69.14-75.37,100.56-115.8,42.5-54.69,79.43-112.89,112.6-173.69,22.37-41,44.55-82.05,65.37-123.86,38.88-78.09,70.68-158.89,95.23-242.61,13.14-44.82,25.88-89.7,36.64-135.17,16.97-71.75,28.17-144.37,34.49-217.76,4.33-50.32,8.08-100.7,7.85-151.26-.19-42.22-3.72-84.28-6.41-126.38-2.86-44.72-8.83-89.06-15.22-133.4-9.51-66-25.03-130.64-42.11-194.96-18.26-68.76-41.46-135.81-70.58-200.74-40.79-90.94-91.37-175.92-156.03-252.07-55.77-65.68-118.69-123.62-190.54-171.4-49.61-32.99-101.57-61.84-156.09-86.09-23.44-10.43-47.4-19-71.92-26.49l-614.45-207Z"/>
<path d="M2540.76,742.72c.11,17.29-.36,34.54-2.83,51.68-.27,1.9-.42,3.82-.5,5.73-1.51,40.24-3.16,80.47-4.39,120.71-.45,14.71-.46,29.41-2.54,44.02-.45,3.16-.83,6.36-.85,9.55-.15,33.26-2.89,66.43-3.85,99.62-1.25,43.45-3.76,86.86-5.52,130.27-1.44,35.68-1.07,71.61-5.81,107.2-1.18,8.82-.65,17.88-.66,26.83,0,16.64-.21,33.26-2.62,49.77-.37,2.53-.66,5.09-.67,7.64-.15,35.81-2.5,71.53-4.11,107.29-2.21,49.15-3.7,98.34-7.26,147.43-.09,1.28-.29,2.56-.25,3.83,1.2,42.25-3.82,84.27-4.67,126.46-.83,40.87-4.02,81.68-6.19,122.52-.14,2.55-.67,5.1-.6,7.65,1.07,41.61-4.48,82.98-4.53,124.55-.01,12.12-1.31,24.24-2.08,36.36-.24,3.83-1.11,7.65-1.02,11.46,.99,41.61-3.74,83-4.73,124.54-.92,38.95-3.99,77.85-6.13,116.77-.14,2.55-.62,5.1-.64,7.64-.34,35.17-2.93,70.27-3.85,105.37-1.13,42.82-3.41,85.63-5.59,128.34-2.05,40.18-1.88,80.47-5.58,120.66-3.57,38.76-3.12,77.89-4.89,116.83-1.92,42.13-4.43,84.23-6.53,126.35-.61,12.13-.72,24.28-1.03,36.43-.2,7.67,.1,15.38-.59,23.01-1.37,15.13-6.64,18.18-19.96,11.92-4.62-2.17-9.08-4.72-13.51-7.27-43.8-25.19-87.56-50.44-131.36-75.61-23.29-13.39-46.65-26.65-69.95-40.01-6.66-3.81-13.13-7.97-19.91-11.55-11.31-5.98-16.96-15.12-16.79-27.91,.22-16.62-.77-33.36,.86-49.84,2.26-22.99,2.6-45.94,2.7-68.97,.14-32.6,.15-65.15,2.93-97.74,2.17-25.41,.82-51.13,.88-76.71,.04-17.92,.37-35.78,2.59-53.62,1.1-8.85,1.08-17.87,1.14-26.81,.17-27.5,.17-55,.15-82.51-.01-15.36,.55-30.66,2.32-45.95,1.1-9.5,1.28-19.14,1.35-28.72,.21-26.22,.13-52.45,.21-78.67,.02-7.03-.39-14.14,.46-21.09,5-40.8,2.84-81.76,3.29-122.66,.18-16.64,.55-33.22,2.55-49.78,1.07-8.86,1.13-17.87,1.19-26.81,.18-26.86,.17-53.72,.16-80.59,0-14.72,.59-29.38,2.26-44.04,1.08-9.51,1.32-19.14,1.4-28.72,.22-26.86-1.48-53.85,.56-80.56,4.25-55.58,.98-111.3,4.27-166.77,2.62-44.13,.63-88.29,3.55-132.24,3.44-51.78,.69-103.65,4.1-155.26,3.2-48.61,.56-97.24,3.56-145.68,3.32-53.7,.89-107.47,4.13-161.01,2.78-46.05,2.13-92.02,3.22-138.03,.65-27.47,4.1-54.79,4.09-82.35-.01-16.32,4.59-21.05,20.45-25.83,12.86-3.87,25.83-7.39,38.84-10.73,79.3-20.35,158.61-40.65,237.94-60.87,17.49-4.46,20.49-2.13,20.83,15.76,.2,10.23,.04,20.47,.04,30.7Z"/>
<path d="M205.21,1539.38c-24-.82-54.72,1.63-85.3-2.61-26.87-3.73-29.2-6.19-32.05-33.32-8.21-78.2-16.8-156.35-25-234.55-6.07-57.85-11.62-115.76-17.7-173.61-5.01-47.68-10.55-95.31-15.66-142.98-7.42-69.28-14.66-138.58-21.98-207.87-2.21-20.98-4.47-41.95-6.6-62.94-3.05-30.03,.17-35,29.65-43.35,49.82-14.12,99.59-28.5,149.67-41.65,41.57-10.91,84.09-16.8,127.13-16.18,54.05,.78,105.04,13.9,151.72,41.83,8.2,4.91,15.8,10.81,23.56,16.43,2.04,1.48,3.88,3.69,2.84,6.48-1,2.68-3.75,3.28-6.26,3.64-62.18,8.91-122.27,27.24-183.45,40.69-11.85,2.61-23.59,5.8-35.24,9.2-9.16,2.67-13.45,9.3-12.88,18.86,.65,10.85,1.19,21.71,2.2,32.53,5.73,61.09,11.79,122.15,17.34,183.26,5.85,64.29,11.08,128.63,16.91,192.92,5.54,61.11,11.61,122.17,17.26,183.27,4.53,49.01,8.71,98.04,13.18,147.05,1.85,20.36,4.01,40.7,6.07,61.05,1.31,12.9-.66,16.5-13.06,18.77-10.01,1.83-20.29,2.74-30.47,2.95-21.73,.43-43.48,.13-71.87,.13Z"/>
<path d="M139.85,2000.1c0-5.73-.38-11.49,.1-17.19,.56-6.64,4.63-10.17,11.42-10.63,2.53-.17,5.12,.04,7.65,.32,63.72,7.01,122.16,27.21,171.85,69.11,8.79,7.42,17.6,14.83,26.21,22.46,9,7.98,13.93,18.02,15.06,30.11,2.03,21.64,4.58,43.24,6.6,64.89,7.77,83.41,15.46,166.83,23.1,250.26,7.7,84.06,15.36,168.11,22.93,252.18,6.94,77.06,13.74,154.14,20.61,231.2,.97,10.83,2.12,21.64,2.94,32.47,1.13,15-5.17,25.19-18.72,32.49-50.68,27.28-101,55.25-151.49,82.88-3.91,2.14-7.98,4.15-12.21,5.48-7.3,2.3-12.52-.63-14.6-8.2-1.18-4.28-1.55-8.8-2.03-13.24-8.54-79.49-17.16-158.97-25.52-238.47-11.04-104.95-21.78-209.93-32.82-314.88-5.48-52.16-11.44-104.26-17-156.41-8.2-76.95-16.25-153.92-24.36-230.88-2.95-27.99-5.86-55.98-8.79-83.97-.31,0-.61,0-.92,0Z"/>
</g></g></g></symbol></svg>